<mxfile host="65bd71144e">
    <diagram name="PÃ¡gina-1" id="xBW13isU5hn6V4tKkow4">
        <mxGraphModel dx="934" dy="336" grid="1" gridSize="10" guides="1" tooltips="1" connect="1" arrows="1" fold="1" page="1" pageScale="1" pageWidth="827" pageHeight="1169" background="none" math="0" shadow="1">
            <root>
                <mxCell id="0"/>
                <mxCell id="1" parent="0"/>
                <mxCell id="watenAWBkrlaCtFBgp6c-7" style="edgeStyle=orthogonalEdgeStyle;rounded=0;orthogonalLoop=1;jettySize=auto;html=1;entryX=0;entryY=0.5;entryDx=0;entryDy=0;startArrow=classic;startFill=1;" parent="1" source="watenAWBkrlaCtFBgp6c-1" target="watenAWBkrlaCtFBgp6c-6" edge="1">
                    <mxGeometry relative="1" as="geometry"/>
                </mxCell>
                <mxCell id="watenAWBkrlaCtFBgp6c-1" value="&lt;b&gt;LoginView&lt;/b&gt;" style="rounded=0;whiteSpace=wrap;html=1;fillColor=#d5e8d4;strokeColor=#82b366;align=center;verticalAlign=middle;fontFamily=Helvetica;fontSize=12;fontColor=#424242;" parent="1" vertex="1">
                    <mxGeometry x="186" y="640" width="120" height="60" as="geometry"/>
                </mxCell>
                <mxCell id="watenAWBkrlaCtFBgp6c-28" style="edgeStyle=orthogonalEdgeStyle;rounded=0;orthogonalLoop=1;jettySize=auto;html=1;" parent="1" source="watenAWBkrlaCtFBgp6c-3" target="watenAWBkrlaCtFBgp6c-24" edge="1">
                    <mxGeometry relative="1" as="geometry"/>
                </mxCell>
                <mxCell id="watenAWBkrlaCtFBgp6c-29" style="edgeStyle=orthogonalEdgeStyle;rounded=0;orthogonalLoop=1;jettySize=auto;html=1;" parent="1" source="watenAWBkrlaCtFBgp6c-3" target="watenAWBkrlaCtFBgp6c-25" edge="1">
                    <mxGeometry relative="1" as="geometry"/>
                </mxCell>
                <mxCell id="watenAWBkrlaCtFBgp6c-30" style="edgeStyle=orthogonalEdgeStyle;rounded=0;orthogonalLoop=1;jettySize=auto;html=1;" parent="1" source="watenAWBkrlaCtFBgp6c-3" target="watenAWBkrlaCtFBgp6c-26" edge="1">
                    <mxGeometry relative="1" as="geometry"/>
                </mxCell>
                <mxCell id="watenAWBkrlaCtFBgp6c-3" value="&lt;b&gt;SQLITE&lt;/b&gt;" style="shape=datastore;whiteSpace=wrap;html=1;fillColor=#dae8fc;strokeColor=#6c8ebf;fontColor=#424242;" parent="1" vertex="1">
                    <mxGeometry x="336" y="430" width="60" height="60" as="geometry"/>
                </mxCell>
                <mxCell id="watenAWBkrlaCtFBgp6c-34" style="edgeStyle=orthogonalEdgeStyle;rounded=0;orthogonalLoop=1;jettySize=auto;html=1;" parent="1" source="watenAWBkrlaCtFBgp6c-5" target="watenAWBkrlaCtFBgp6c-31" edge="1">
                    <mxGeometry relative="1" as="geometry"/>
                </mxCell>
                <mxCell id="watenAWBkrlaCtFBgp6c-35" style="edgeStyle=orthogonalEdgeStyle;rounded=0;orthogonalLoop=1;jettySize=auto;html=1;" parent="1" source="watenAWBkrlaCtFBgp6c-5" target="watenAWBkrlaCtFBgp6c-32" edge="1">
                    <mxGeometry relative="1" as="geometry"/>
                </mxCell>
                <mxCell id="watenAWBkrlaCtFBgp6c-5" value="&lt;b&gt;HomeView&lt;/b&gt;" style="rounded=0;whiteSpace=wrap;html=1;fillColor=#d5e8d4;strokeColor=#82b366;align=center;verticalAlign=middle;fontFamily=Helvetica;fontSize=12;fontColor=#424242;" parent="1" vertex="1">
                    <mxGeometry x="426" y="640" width="120" height="60" as="geometry"/>
                </mxCell>
                <mxCell id="watenAWBkrlaCtFBgp6c-8" style="edgeStyle=orthogonalEdgeStyle;rounded=0;orthogonalLoop=1;jettySize=auto;html=1;entryX=0.5;entryY=0;entryDx=0;entryDy=0;exitX=1;exitY=0.5;exitDx=0;exitDy=0;startArrow=classic;startFill=1;" parent="1" source="watenAWBkrlaCtFBgp6c-6" target="watenAWBkrlaCtFBgp6c-5" edge="1">
                    <mxGeometry relative="1" as="geometry"/>
                </mxCell>
                <mxCell id="watenAWBkrlaCtFBgp6c-9" style="edgeStyle=orthogonalEdgeStyle;rounded=0;orthogonalLoop=1;jettySize=auto;html=1;startArrow=classic;startFill=1;" parent="1" source="watenAWBkrlaCtFBgp6c-6" target="watenAWBkrlaCtFBgp6c-3" edge="1">
                    <mxGeometry relative="1" as="geometry"/>
                </mxCell>
                <mxCell id="watenAWBkrlaCtFBgp6c-6" value="&lt;b&gt;ServiceDB&lt;/b&gt;" style="rounded=0;whiteSpace=wrap;html=1;fillColor=#fff2cc;strokeColor=#d6b656;align=center;verticalAlign=middle;fontFamily=Helvetica;fontSize=12;fontColor=#424242;" parent="1" vertex="1">
                    <mxGeometry x="306" y="540" width="120" height="60" as="geometry"/>
                </mxCell>
                <mxCell id="watenAWBkrlaCtFBgp6c-24" value="Table&lt;br&gt;Users" style="whiteSpace=wrap;html=1;align=center;fillColor=#dae8fc;strokeColor=#6c8ebf;fontColor=#424242;" parent="1" vertex="1">
                    <mxGeometry x="176" y="350" width="100" height="40" as="geometry"/>
                </mxCell>
                <mxCell id="watenAWBkrlaCtFBgp6c-25" value="Table user_register_record" style="whiteSpace=wrap;html=1;align=center;fillColor=#dae8fc;strokeColor=#6c8ebf;fontColor=#424242;" parent="1" vertex="1">
                    <mxGeometry x="296" y="350" width="140" height="40" as="geometry"/>
                </mxCell>
                <mxCell id="watenAWBkrlaCtFBgp6c-26" value="Table &lt;br&gt;products" style="whiteSpace=wrap;html=1;align=center;fillColor=#dae8fc;strokeColor=#6c8ebf;fontColor=#424242;" parent="1" vertex="1">
                    <mxGeometry x="456" y="350" width="140" height="40" as="geometry"/>
                </mxCell>
                <mxCell id="watenAWBkrlaCtFBgp6c-31" value="&lt;b&gt;Frame Home&lt;/b&gt;" style="rounded=0;whiteSpace=wrap;html=1;fillColor=#b0e3e6;strokeColor=#0e8088;align=center;verticalAlign=middle;fontFamily=Helvetica;fontSize=12;fontColor=#424242;" parent="1" vertex="1">
                    <mxGeometry x="321" y="760" width="120" height="60" as="geometry"/>
                </mxCell>
                <mxCell id="watenAWBkrlaCtFBgp6c-32" value="&lt;b&gt;Frame Add Product&lt;/b&gt;" style="rounded=0;whiteSpace=wrap;html=1;fillColor=#b0e3e6;strokeColor=#0e8088;align=center;verticalAlign=middle;fontFamily=Helvetica;fontSize=12;fontColor=#424242;" parent="1" vertex="1">
                    <mxGeometry x="511" y="760" width="140" height="60" as="geometry"/>
                </mxCell>
            </root>
        </mxGraphModel>
    </diagram>
</mxfile>